<?xml version="1.0" encoding="UTF-8" standalone="no"?>
<svg
   width="375"
   viewBox="0 0 375 375"
   height="375"
   version="1.0"
   id="svg88"
   sodipodi:docname="skeeell.svg"
   inkscape:version="1.1.1 (c3084ef, 2021-09-22)"
   xmlns:inkscape="http://www.inkscape.org/namespaces/inkscape"
   xmlns:sodipodi="http://sodipodi.sourceforge.net/DTD/sodipodi-0.dtd"
   xmlns:xlink="http://www.w3.org/1999/xlink"
   xmlns="http://www.w3.org/2000/svg"
   xmlns:svg="http://www.w3.org/2000/svg">
  <sodipodi:namedview
     id="namedview90"
     pagecolor="#ffffff"
     bordercolor="#999999"
     borderopacity="1"
     inkscape:pageshadow="0"
     inkscape:pageopacity="0"
     inkscape:pagecheckerboard="0"
     showgrid="false"
     inkscape:zoom="2.328"
     inkscape:cx="171.39175"
     inkscape:cy="156.57216"
     inkscape:window-width="1213"
     inkscape:window-height="881"
     inkscape:window-x="2587"
     inkscape:window-y="169"
     inkscape:window-maximized="0"
     inkscape:current-layer="svg88" />
  <defs
     id="defs40">
    <g
       id="b">
      <path
         d="M 26.015625 1.828125 C 20.847656 1.828125 16.300781 0.722656 12.375 -1.484375 C 8.457031 -3.691406 5.472656 -6.8125 3.421875 -10.84375 L 10.390625 -14.265625 C 13.203125 -8.253906 18.71875 -5.25 26.9375 -5.25 C 30.894531 -5.25 34.164062 -5.972656 36.75 -7.421875 C 39.332031 -8.867188 40.625 -11.113281 40.625 -14.15625 C 40.625 -17.269531 39.578125 -19.585938 37.484375 -21.109375 C 35.398438 -22.628906 31.734375 -23.617188 26.484375 -24.078125 C 19.171875 -24.691406 13.9375 -26.328125 10.78125 -28.984375 C 7.625 -31.648438 6.046875 -35.1875 6.046875 -39.59375 C 6.046875 -44.539062 7.832031 -48.382812 11.40625 -51.125 C 14.988281 -53.863281 19.898438 -55.234375 26.140625 -55.234375 C 36.710938 -55.234375 43.898438 -51.050781 47.703125 -42.6875 L 40.75 -39.265625 C 39.445312 -42.304688 37.5625 -44.546875 35.09375 -45.984375 C 32.625 -47.429688 29.445312 -48.15625 25.5625 -48.15625 C 21.601562 -48.15625 18.578125 -47.429688 16.484375 -45.984375 C 14.398438 -44.546875 13.359375 -42.492188 13.359375 -39.828125 C 13.359375 -37.316406 14.476562 -35.28125 16.71875 -33.71875 C 18.96875 -32.164062 22.828125 -31.160156 28.296875 -30.703125 C 35.066406 -30.085938 40.109375 -28.429688 43.421875 -25.734375 C 46.734375 -23.035156 48.390625 -19.476562 48.390625 -15.0625 C 48.390625 -11.488281 47.359375 -8.425781 45.296875 -5.875 C 43.242188 -3.320312 40.503906 -1.398438 37.078125 -0.109375 C 33.660156 1.179688 29.972656 1.828125 26.015625 1.828125 Z M 26.015625 1.828125"
         id="path9" />
    </g>
    <g
       id="c">
      <path
         d="M 30.25 -55.234375 C 35.039062 -55.234375 39.375 -54.050781 43.25 -51.6875 C 47.132812 -49.332031 50.175781 -46.117188 52.375 -42.046875 C 54.582031 -37.984375 55.6875 -33.441406 55.6875 -28.421875 C 55.6875 -26.972656 55.648438 -25.867188 55.578125 -25.109375 L 11.640625 -25.109375 C 11.941406 -19.628906 13.726562 -14.945312 17 -11.0625 C 20.269531 -7.1875 24.722656 -5.25 30.359375 -5.25 C 34.921875 -5.25 38.703125 -6.101562 41.703125 -7.8125 C 44.710938 -9.53125 47.128906 -11.910156 48.953125 -14.953125 L 55.125 -10.84375 C 52.613281 -6.882812 49.300781 -3.78125 45.1875 -1.53125 C 41.082031 0.707031 36.210938 1.828125 30.578125 1.828125 C 25.410156 1.828125 20.8125 0.609375 16.78125 -1.828125 C 12.75 -4.265625 9.585938 -7.648438 7.296875 -11.984375 C 5.015625 -16.316406 3.875 -21.222656 3.875 -26.703125 C 3.875 -32.179688 4.992188 -37.085938 7.234375 -41.421875 C 9.484375 -45.765625 12.601562 -49.148438 16.59375 -51.578125 C 20.59375 -54.015625 25.144531 -55.234375 30.25 -55.234375 Z M 47.9375 -31.5 C 47.175781 -37.050781 45.3125 -41.210938 42.34375 -43.984375 C 39.375 -46.765625 35.34375 -48.15625 30.25 -48.15625 C 25.300781 -48.15625 21.25 -46.578125 18.09375 -43.421875 C 14.9375 -40.265625 12.9375 -36.289062 12.09375 -31.5 Z M 47.9375 -31.5"
         id="path12" />
    </g>
    <g
       id="d">
      <path
         d="M 40.171875 0 L 21.453125 -27.5 L 14.953125 -21.234375 L 14.953125 0 L 7.1875 0 L 7.1875 -82.859375 L 14.953125 -82.859375 L 14.953125 -31.046875 L 38.34375 -53.40625 L 48.390625 -53.40625 L 26.8125 -32.640625 L 48.84375 0 Z M 40.171875 0"
         id="path15" />
    </g>
    <g
       id="i">
      <path
         d="M 7.765625 0 L 7.765625 -82.859375 L 15.515625 -82.859375 L 15.515625 0 Z M 7.765625 0"
         id="path18" />
    </g>
    <clipPath
       id="f">
      <path
         d="M0 0H62V151H0z"
         id="path21" />
    </clipPath>
    <clipPath
       id="h">
      <path
         d="M0 0H62V151H0z"
         id="path24" />
    </clipPath>
    <mask
       id="e">
      <g
         filter="url(#a)"
         id="g29">
        <path
           fill-opacity=".498"
           d="M-37.5 -37.5H412.5V412.5H-37.5z"
           id="path27" />
      </g>
    </mask>
    <mask
       id="g">
      <g
         filter="url(#a)"
         id="g34">
        <path
           fill-opacity=".749"
           d="M-37.5 -37.5H412.5V412.5H-37.5z"
           id="path32" />
      </g>
    </mask>
    <filter
       x="0"
       y="0"
       width="1"
       xlink:type="simple"
       xlink:actuate="onLoad"
       height="1"
       id="a"
       xlink:show="other">
      <feColorMatrix
         values="0 0 0 0 1 0 0 0 0 1 0 0 0 0 1 0 0 0 1 0"
         color-interpolation-filters="sRGB"
         id="feColorMatrix37" />
    </filter>
  </defs>
  <path
     fill="#FFF"
     d="M-37.5 -37.5H412.5V412.5H-37.5z"
     id="path42"
     style="fill:#ffffff;fill-opacity:0;opacity:0" />
  <path
     fill="#FFF"
     d="M-37.5 -37.5H412.5V412.5H-37.5z"
     id="path44"
     style="fill:none;fill-opacity:0;opacity:0" />
  <path
     fill="#ffffff"
     d="M -33.204467,-15.163231 H 416.79553 V 434.83488 H -33.204467 Z"
     id="path46"
     style="fill-opacity:0;stroke-width:0.999998;fill:#ffffff;opacity:0" />
  <g
     fill="#3D3D3C"
     id="g50">
    <use
       x="67.222"
       y="231.239"
       xlink:href="#b"
       xlink:type="simple"
       xlink:actuate="onLoad"
       xlink:show="embed"
       id="use48" />
  </g>
  <g
     fill="#179D40"
     id="g54">
    <use
       x="210.877"
       y="231.238"
       xlink:href="#c"
       xlink:type="simple"
       xlink:actuate="onLoad"
       xlink:show="embed"
       id="use52" />
  </g>
  <g
     fill="#3D3D3C"
     id="g58">
    <use
       x="110.932"
       y="231.239"
       xlink:href="#d"
       xlink:type="simple"
       xlink:actuate="onLoad"
       xlink:show="embed"
       id="use56" />
  </g>
  <g
     mask="url(#e)"
     id="g68">
    <g
       id="g66">
      <g
         clip-path="url(#f)"
         transform="translate(150 112)"
         id="g64">
        <g
           fill="#179D40"
           id="g62">
          <use
             x=".958"
             y="119.238"
             xlink:href="#c"
             xlink:type="simple"
             xlink:actuate="onLoad"
             xlink:show="embed"
             id="use60" />
        </g>
      </g>
    </g>
  </g>
  <g
     mask="url(#g)"
     id="g78">
    <g
       id="g76">
      <g
         clip-path="url(#h)"
         transform="translate(180 112)"
         id="g74">
        <g
           fill="#179D40"
           id="g72">
          <use
             x=".917"
             y="119.238"
             xlink:href="#c"
             xlink:type="simple"
             xlink:actuate="onLoad"
             xlink:show="embed"
             id="use70" />
        </g>
      </g>
    </g>
  </g>
  <g
     fill="#3D3D3C"
     id="g82">
    <use
       x="265.423"
       y="232.108"
       xlink:href="#i"
       xlink:type="simple"
       xlink:actuate="onLoad"
       xlink:show="embed"
       id="use80" />
  </g>
  <g
     fill="#3D3D3C"
     id="g86">
    <use
       x="281.29"
       y="232.108"
       xlink:href="#i"
       xlink:type="simple"
       xlink:actuate="onLoad"
       xlink:show="embed"
       id="use84" />
  </g>
</svg>