<svg id="Layer_1" data-name="Layer 1" xmlns="http://www.w3.org/2000/svg" viewBox="0 0 115.81 108.7"><defs><style>.cls-1{fill:#3e3f3c;}.cls-2{fill:#fff;}</style></defs><path class="cls-1" d="M50.29,68.78" transform="translate(0 0)"/><path class="cls-2" d="M44.4,37.43" transform="translate(0 0)"/><path class="cls-1" d="M64.62,61.55" transform="translate(0 0)"/><path class="cls-1" d="M42.9,45.7" transform="translate(0 0)"/><path class="cls-1" d="M104.37,77.23,99.07,83q3.14,8,6.29,16L87.52,95.68l-5,5.46,33.28,5.71Z" transform="translate(0 0)"/><rect class="cls-1" x="43.64" y="79.87" width="24.52" height="7.1"/><rect class="cls-1" x="43.65" y="62.53" width="7.13" height="24.45"/><rect class="cls-1" x="61.06" y="64.29" width="7.1" height="22.55"/><path class="cls-1" d="M56.35,18.39a26,26,0,0,0-5.58,51.17V62.41A18.82,18.82,0,1,1,74.65,43.79c0,.16,0,.33,0,.5A18.57,18.57,0,0,1,61.05,62.41v7.33a25.95,25.95,0,0,0-4.7-51.35Z" transform="translate(0 0)"/><path class="cls-2" d="M49.34,80.18" transform="translate(0 0)"/><rect class="cls-1" x="50.28" y="73.44" width="11.25" height="4.24"/><rect class="cls-1" x="50.72" y="67.21" width="11.25" height="4.24"/><path class="cls-1" d="M82.12,94.68a50.67,50.67,0,0,1-25.77,7C29,101.65,6.86,80.28,6.86,53.92S29,6.19,56.35,6.19s49.49,21.37,49.49,47.73a46.33,46.33,0,0,1-8,26q1.51,3.85,3,7.71A52.9,52.9,0,0,0,112.7,54.35C112.7,24.33,87.47,0,56.35,0S0,24.33,0,54.35,25.23,108.7,56.35,108.7A57.33,57.33,0,0,0,91.91,96.5Z" transform="translate(0 0)"/></svg>