<svg id="Layer_1" data-name="Layer 1" xmlns="http://www.w3.org/2000/svg" viewBox="0 0 113.39 113.39"><defs><style>.cls-1{fill:#3e3f3c;}.cls-2{fill:#fff;}</style></defs><path class="cls-1" d="M51.39,70" transform="translate(0 0)"/><path class="cls-2" d="M45.54,38.06" transform="translate(0 0)"/><path class="cls-1" d="M65.63,62.58" transform="translate(0 0)"/><path class="cls-1" d="M44.05,46.47" transform="translate(0 0)"/><path class="cls-1" d="M57.41,0c-30.92,0-56,24.74-56,55.26A63.93,63.93,0,0,0,3.17,69,55.16,55.16,0,0,0,13.49,89.51c.4-1.33.83-2.71,1.31-4.11s1-2.74,1.45-4a47.84,47.84,0,0,1-8-26.54c0-26.81,22-48.54,49.17-48.54S106.58,28,106.58,54.83s-22,48.54-49.17,48.54a49.4,49.4,0,0,1-23.28-5.78L25,100.31a56.19,56.19,0,0,0,14.76,7.4,64.56,64.56,0,0,0,17.65,2.81c30.92,0,56-24.74,56-55.26S88.33,0,57.41,0Z" transform="translate(0 0)"/><path class="cls-1" d="M41.26,47.88" transform="translate(0 0)"/><path class="cls-2" d="M42,47.27" transform="translate(0 0)"/><rect class="cls-1" x="43.99" y="81.14" width="24.52" height="7.1"/><rect class="cls-1" x="43.99" y="63.8" width="7.13" height="24.45"/><rect class="cls-1" x="61.41" y="65.56" width="7.1" height="22.55"/><path class="cls-1" d="M56.69,19.65a26,26,0,0,0-5.57,51.17V63.68A18.82,18.82,0,1,1,75,45.06c0,.16,0,.33,0,.49A18.57,18.57,0,0,1,61.4,63.67V71a25.95,25.95,0,0,0-4.71-51.35Z" transform="translate(0 0)"/><path class="cls-2" d="M63.69,81.44" transform="translate(0 0)"/><path class="cls-2" d="M49.69,81.44" transform="translate(0 0)"/><rect class="cls-1" x="50.62" y="74.71" width="11.25" height="4.24"/><rect class="cls-1" x="51.07" y="68.48" width="11.25" height="4.24"/><path class="cls-1" d="M9.12,104.81l5-17.31L8.63,82.4,0,113.39l32.42-8.66-5.34-5Z" transform="translate(0 0)"/></svg>