<svg id="Layer_1" data-name="Layer 1" xmlns="http://www.w3.org/2000/svg" viewBox="0 0 113.39 113.39"><defs><style>.cls-1{fill:#3e3f3c;}.cls-2{fill:#fff;}.cls-3{fill:#ec008c;}</style></defs><path class="cls-1" d="M51.39,70" transform="translate(0 0)"/><path class="cls-2" d="M45.54,38.06" transform="translate(0 0)"/><path class="cls-1" d="M65.63,62.58" transform="translate(0 0)"/><path class="cls-1" d="M44.05,46.47" transform="translate(0 0)"/><polygon class="cls-1" points="49.95 85.88 86.18 35.51 75.84 28.28 41.47 76.06 49.95 85.88"/><path class="cls-1" d="M41.26,47.88" transform="translate(0 0)"/><path class="cls-2" d="M42,47.27" transform="translate(0 0)"/><path class="cls-3" d="M75.84,28.28" transform="translate(0 0)"/><path class="cls-3" d="M36.69,51.43" transform="translate(0 0)"/><polygon class="cls-1" points="47.76 83.16 57.24 75.17 36.69 51.43 27.23 59.4 47.76 83.16"/><path class="cls-1" d="M57.41,0c-30.92,0-56,24.74-56,55.26A54.57,54.57,0,0,0,13.76,89.84c.81-2.85,1.63-5.7,2.44-8.55a47.82,47.82,0,0,1-8-26.46c0-26.81,22-48.54,49.17-48.54S106.58,28,106.58,54.83s-22,48.54-49.17,48.54a49.36,49.36,0,0,1-23.27-5.78l-9.26,2.63a56.17,56.17,0,0,0,32.53,10.3c30.92,0,56-24.74,56-55.26S88.33,0,57.41,0Z" transform="translate(0 0)"/><path class="cls-1" d="M9.55,104.57l4.8-16.8L8.63,82.4,0,113.39l32.42-8.66L27,99.62Z" transform="translate(0 0)"/></svg>