<svg id="Layer_1" data-name="Layer 1" xmlns="http://www.w3.org/2000/svg" viewBox="0 0 113.37 113.84"><defs><style>.cls-1{fill:white;}.cls-2{fill:#fff;}</style></defs><path class="cls-1" d="M56.93,0,0,23.69V83.33l56,30.51,57.37-30.78V23.69ZM52.29,104.09,5.67,79.44V31.57L52.29,51.06Zm3.65-58.95L8.66,25.22,56.85,5.57,102.94,25.5ZM107.72,78.7,59.91,104.16V50.91l47.81-20.58Z" transform="translate(0 0)"/><path class="cls-1" d="M13.72,54.06l6.13,2.33a3,3,0,0,1,.52-2.75,3.59,3.59,0,0,1,3.3-1.13,11.5,11.5,0,0,1,4.41,1.43,10.47,10.47,0,0,1,2.38,1.86,7.06,7.06,0,0,1,1.71,4.12,4.13,4.13,0,0,1-.43,2.49,5,5,0,0,1-3.23,2.17,13.26,13.26,0,0,0-2.08,1,8.39,8.39,0,0,0-2.15,1.59,7.35,7.35,0,0,0-1.14,1.63,5,5,0,0,0-.66,2.69v3.77l6.07,2.93.06-4.49A3.9,3.9,0,0,1,29.27,72a4.52,4.52,0,0,1,2-1.56c.36-.19.9-.47,1.58-.78,2.44-1.09,3.46-1,4.44-1.83A4.24,4.24,0,0,0,38.71,65a14.48,14.48,0,0,0-.13-5.21A13.93,13.93,0,0,0,37,55.25a15.15,15.15,0,0,0-3.21-3.83,19.71,19.71,0,0,0-4.1-2.86,18.66,18.66,0,0,0-5.18-1.76,14.16,14.16,0,0,0-2.16-.26,12.75,12.75,0,0,0-5.11.91,6.71,6.71,0,0,0-2.71,2.3A5.83,5.83,0,0,0,13.72,54.06Z" transform="translate(0 0)"/><path class="cls-1" d="M22.39,77.16,28.3,80c0,1.81-.09,3.62-.14,5.42l-5.87-3Z" transform="translate(0 0)"/><path class="cls-2" d="M3.94,81" transform="translate(0 0)"/><path class="cls-1" d="M74.05,64.18l6-2.38A9.1,9.1,0,0,1,81.11,58a10,10,0,0,1,2.53-3,8,8,0,0,1,3.13-1.71A8.65,8.65,0,0,1,90.09,53,3.22,3.22,0,0,1,92,54.24a2.65,2.65,0,0,1,.36,2.22,13.86,13.86,0,0,1-2.9,5.93c-.36.44-1,1.16-1.72,2-1.31,1.53-1.63,1.84-2.23,2.66a16.06,16.06,0,0,0-1.57,2.49,11,11,0,0,0-1,2.59,9.27,9.27,0,0,0-.23,2.92v3.68l6-2.71a13.65,13.65,0,0,1,0-3.13,9.15,9.15,0,0,1,.72-3,11.43,11.43,0,0,1,2-2.78c.78-.91,1-1,2.1-2.29a32.2,32.2,0,0,0,2.34-2.74,15,15,0,0,0,2-4.17,11.18,11.18,0,0,0,.77-4.39,5.86,5.86,0,0,0-1.12-3.66,6.36,6.36,0,0,0-2.83-1.93,8.53,8.53,0,0,0-3.13-.5,12.38,12.38,0,0,0-1.92.2,20.11,20.11,0,0,0-2.31.47,19.76,19.76,0,0,0-5,2.09,16.91,16.91,0,0,0-7.13,8.44A16.74,16.74,0,0,0,74.05,64.18Z" transform="translate(0 0)"/><path class="cls-1" d="M89.08,78.76l-6,2.74v5.43l5.93-3Z" transform="translate(0 0)"/><path class="cls-1" d="M42.24,27l4.62-3.19a3.25,3.25,0,0,1-2-1.84A2.68,2.68,0,0,1,45,20a5.44,5.44,0,0,1,1.87-2,8.79,8.79,0,0,1,3.78-1.84,6.77,6.77,0,0,1,4.72.53,4.59,4.59,0,0,1,2,2.32,3.42,3.42,0,0,1,.08,1.62c0,.2-.05.5-.09.84s-.09,1.06-.1,1.72a7.54,7.54,0,0,0,.29,2.71,6.36,6.36,0,0,0,.95,1.78,6.75,6.75,0,0,0,1,1,10.62,10.62,0,0,0,2.73,1.71l5.8-2.74-3.43-2.08a2.91,2.91,0,0,1-1.22-1.33,3,3,0,0,1-.14-1.71c.31-2.33.57-2.86.6-3.71a5.49,5.49,0,0,0-1-3.2,8.2,8.2,0,0,0-2.29-2.22,9.23,9.23,0,0,0-2.84-1.24,17.41,17.41,0,0,0-8.57.47,18.55,18.55,0,0,0-4.12,1.58,17.13,17.13,0,0,0-3.3,2.24,9.17,9.17,0,0,0-2.36,2.82,8.3,8.3,0,0,0-.93,3.11,5,5,0,0,0,1,2.73A6,6,0,0,0,42.24,27Z" transform="translate(0 0)"/><path class="cls-1" d="M64.31,31.69,69.94,29l4.85,2.51L69,34.21Z" transform="translate(0 0)"/><path class="cls-1" d="M56.2,32.1" transform="translate(0 0)"/><path class="cls-2" d="M50.35,104.09" transform="translate(0 0)"/></svg>