<svg id="Layer_1" data-name="Layer 1" xmlns="http://www.w3.org/2000/svg" viewBox="0 0 81.09 113.16"><defs><style>.cls-1{fill:white;}</style></defs><rect class="cls-1" x="15.08" y="28.72" width="20.25" height="3.1"/><rect class="cls-1" x="15.08" y="48.21" width="50.94" height="3.1"/><rect class="cls-1" x="15.07" y="65.52" width="50.94" height="3.1"/><rect class="cls-1" x="15.07" y="80.69" width="50.94" height="3.1"/><polygon class="cls-1" points="62.97 5.67 75.42 5.67 75.42 17.23 81.09 17.23 81.09 0 62.97 0 62.97 5.67"/><polygon class="cls-1" points="75.42 29.55 75.42 107.5 5.67 107.5 5.67 5.67 51.2 5.67 51.2 0 0 0 0 113.16 81.09 113.16 81.09 29.55 75.42 29.55"/><polygon class="cls-1" points="79.49 4.82 52.23 33.27 48.32 29.17 75.58 0.72 79.49 4.82"/></svg>