<svg id="Layer_1" data-name="Layer 1" xmlns="http://www.w3.org/2000/svg" viewBox="0 0 115.81 108.7"><defs><style>.cls-1{fill:#3e3f3c;}.cls-2{fill:#fff;}</style></defs><ellipse class="cls-1" cx="56.35" cy="54.35" rx="56.35" ry="54.35"/><ellipse class="cls-2" cx="56.35" cy="53.92" rx="49.49" ry="47.73"/><path class="cls-1" d="M134.12,155.82" transform="translate(-83.83 -87.04)"/><path class="cls-2" d="M128.23,124.47" transform="translate(-83.83 -87.04)"/><path class="cls-1" d="M148.45,148.59" transform="translate(-83.83 -87.04)"/><path class="cls-1" d="M126.73,132.74" transform="translate(-83.83 -87.04)"/><polyline class="cls-1" points="104.37 77.23 115.81 106.85 82.53 101.14"/><path class="cls-2" d="M178.89,159.91Q184,173,189.19,186.05l-28.5-5.32" transform="translate(-83.83 -87.04)"/><rect class="cls-1" x="43.64" y="79.87" width="24.52" height="7.1"/><rect class="cls-1" x="118.81" y="158.23" width="24.45" height="7.13" transform="translate(209.01 -56.28) rotate(90)"/><rect class="cls-1" x="137.16" y="159.06" width="22.55" height="7.1" transform="translate(227.22 -72.87) rotate(90)"/><ellipse class="cls-1" cx="56.35" cy="44.29" rx="25.4" ry="25.9"/><path class="cls-2" d="M140.17,150.14a18.82,18.82,0,1,1,18.32-18.81A18.58,18.58,0,0,1,140.17,150.14Z" transform="translate(-83.83 -87.04)"/><rect class="cls-2" x="50.77" y="58.74" width="10.28" height="12.07"/><path class="cls-2" d="M133.17,167.22" transform="translate(-83.83 -87.04)"/><rect class="cls-1" x="50.28" y="73.44" width="11.25" height="4.24"/><rect class="cls-1" x="50.72" y="67.21" width="11.25" height="4.24"/></svg>