<svg id="Layer_1" data-name="Layer 1" xmlns="http://www.w3.org/2000/svg" viewBox="0 0 113.39 113.39"><defs><style>.cls-1{fill:#3e3f3c;}.cls-2{fill:#fff;}</style></defs><ellipse class="cls-1" cx="57.41" cy="55.26" rx="55.98" ry="55.26"/><ellipse class="cls-2" cx="57.41" cy="54.83" rx="49.17" ry="48.54"/><path class="cls-1" d="M136.43,155" transform="translate(-85.04 -85.04)"/><path class="cls-2" d="M130.58,123.1" transform="translate(-85.04 -85.04)"/><path class="cls-1" d="M150.67,147.62" transform="translate(-85.04 -85.04)"/><path class="cls-1" d="M129.09,131.51" transform="translate(-85.04 -85.04)"/><polyline class="cls-1" points="8.63 82.4 0 113.39 32.42 104.73"/><path class="cls-2" d="M102.49,162.22q-3.9,13.68-7.82,27.36l27.72-7.86" transform="translate(-85.04 -85.04)"/><path class="cls-1" d="M126.3,132.92" transform="translate(-85.04 -85.04)"/><path class="cls-2" d="M127,132.31" transform="translate(-85.04 -85.04)"/><rect class="cls-1" x="43.99" y="81.14" width="24.52" height="7.1"/><rect class="cls-1" x="120.37" y="157.49" width="24.45" height="7.13" transform="translate(208.61 -56.57) rotate(90)"/><rect class="cls-1" x="138.72" y="158.32" width="22.55" height="7.1" transform="translate(226.83 -73.16) rotate(90)"/><ellipse class="cls-1" cx="56.69" cy="45.55" rx="25.4" ry="25.9"/><path class="cls-2" d="M141.73,149.41a18.82,18.82,0,1,1,18.32-18.82A18.59,18.59,0,0,1,141.73,149.41Z" transform="translate(-85.04 -85.04)"/><rect class="cls-2" x="51.12" y="60.01" width="10.28" height="12.07"/><path class="cls-2" d="M148.73,166.48" transform="translate(-85.04 -85.04)"/><path class="cls-2" d="M134.73,166.48" transform="translate(-85.04 -85.04)"/><rect class="cls-1" x="50.62" y="74.71" width="11.25" height="4.24"/><rect class="cls-1" x="51.07" y="68.48" width="11.25" height="4.24"/></svg>