<svg id="Layer_1" data-name="Layer 1" xmlns="http://www.w3.org/2000/svg" viewBox="0 0 115.81 108.7"><defs><style>.cls-1{fill:#3e3f3c;}.cls-2{fill:#fff;}</style></defs><path class="cls-1" d="M50.29,68.78" transform="translate(0 0)"/><path class="cls-2" d="M44.4,37.43" transform="translate(0 0)"/><path class="cls-1" d="M64.62,61.55" transform="translate(0 0)"/><path class="cls-1" d="M42.9,45.7" transform="translate(0 0)"/><path class="cls-1" d="M104.37,77.23,99.06,83c2.1,5.33,4.18,10.66,6.3,16L87.5,95.7l-5,5.44,33.28,5.71Z" transform="translate(0 0)"/><polygon class="cls-1" points="51 86.38 87.23 36.01 76.89 28.78 42.52 76.55 51 86.38"/><polygon class="cls-1" points="48.72 83.74 58.29 75.67 37.74 51.93 28.2 59.98 48.72 83.74"/><path class="cls-1" d="M82.1,94.69a50.69,50.69,0,0,1-25.75,7C29,101.65,6.86,80.28,6.86,53.92S29,6.19,56.35,6.19s49.49,21.37,49.49,47.73a46.33,46.33,0,0,1-8,26q1.51,3.85,3,7.71A52.9,52.9,0,0,0,112.7,54.35C112.7,24.33,87.47,0,56.35,0S0,24.33,0,54.35,25.23,108.7,56.35,108.7A57.38,57.38,0,0,0,91.89,96.52Z" transform="translate(0 0)"/></svg>