<svg id="Layer_1" data-name="Layer 1" xmlns="http://www.w3.org/2000/svg" viewBox="0 0 115.81 108.7"><defs><style>.cls-1{fill:#3e3f3c;}.cls-2{fill:#fff;}</style></defs><ellipse class="cls-1" cx="56.35" cy="54.35" rx="56.35" ry="54.35"/><ellipse class="cls-2" cx="56.35" cy="53.92" rx="49.49" ry="47.73"/><path class="cls-1" d="M134.12,155.75" transform="translate(-83.83 -86.97)"/><path class="cls-2" d="M128.23,124.4" transform="translate(-83.83 -86.97)"/><path class="cls-1" d="M148.45,148.52" transform="translate(-83.83 -86.97)"/><path class="cls-1" d="M126.73,132.67" transform="translate(-83.83 -86.97)"/><polyline class="cls-1" points="104.37 77.23 115.81 106.85 82.53 101.14"/><path class="cls-2" d="M178.89,159.84Q184,172.92,189.19,186l-28.5-5.32" transform="translate(-83.83 -86.97)"/><polygon class="cls-1" points="58.29 75.67 47.36 84.88 26.8 61.15 37.74 51.93 58.29 75.67"/><polygon class="cls-1" points="50.3 87.35 39.95 80.12 76.89 28.78 87.23 36.01 50.3 87.35"/><polygon class="cls-2" points="43.39 97.38 17.65 67.58 27.56 59.24 53.3 89.04 43.39 97.38"/></svg>