<svg id="Layer_1" data-name="Layer 1" xmlns="http://www.w3.org/2000/svg" viewBox="0 0 113.39 113.39"><defs><style>.cls-1{fill:#3e3f3c;}.cls-2{fill:#fff;}.cls-3{fill:#ec008c;}</style></defs><ellipse class="cls-1" cx="57.41" cy="55.26" rx="55.98" ry="55.26"/><ellipse class="cls-2" cx="57.41" cy="54.83" rx="49.17" ry="48.54"/><path class="cls-1" d="M136.43,155" transform="translate(-85.04 -85.04)"/><path class="cls-2" d="M130.58,123.1" transform="translate(-85.04 -85.04)"/><path class="cls-1" d="M150.67,147.62" transform="translate(-85.04 -85.04)"/><path class="cls-1" d="M129.09,131.51" transform="translate(-85.04 -85.04)"/><polyline class="cls-1" points="8.63 82.4 0 113.39 32.42 104.73"/><path class="cls-2" d="M102.49,162.22q-3.9,13.68-7.82,27.36l27.72-7.86" transform="translate(-85.04 -85.04)"/><polygon class="cls-1" points="57.24 75.17 46.31 84.38 25.75 60.64 36.69 51.43 57.24 75.17"/><polygon class="cls-1" points="49.25 86.85 38.91 79.62 75.84 28.28 86.18 35.51 49.25 86.85"/><polygon class="cls-2" points="42.34 96.88 16.6 67.08 26.51 58.74 52.25 88.54 42.34 96.88"/><path class="cls-1" d="M126.3,132.92" transform="translate(-85.04 -85.04)"/><path class="cls-2" d="M127,132.31" transform="translate(-85.04 -85.04)"/><path class="cls-3" d="M160.88,113.32" transform="translate(-85.04 -85.04)"/><path class="cls-3" d="M121.73,136.47" transform="translate(-85.04 -85.04)"/></svg>