<svg id="Layer_1" data-name="Layer 1" xmlns="http://www.w3.org/2000/svg" xmlns:xlink="http://www.w3.org/1999/xlink" viewBox="0 0 87.05 115.7"><defs><style>.cls-1{fill:none;}.cls-2{fill:#3e3f3c;}.cls-3,.cls-6{fill:#fff;}.cls-4{clip-path:url(#clip-path);}.cls-5{clip-path:url(#clip-path-2);}.cls-6{stroke:#231f20;stroke-miterlimit:10;}</style><clipPath id="clip-path" transform="translate(-98.21 -83.88)"><rect class="cls-1" x="108.12" y="166.84" width="33.57" height="18.52"/></clipPath><clipPath id="clip-path-2" transform="translate(-98.21 -83.88)"><rect class="cls-1" x="141.68" y="166.84" width="33.57" height="18.52"/></clipPath></defs><rect class="cls-2" x="2.82" width="81.3" height="113.39"/><rect class="cls-3" x="103.75" y="95.34" width="75.87" height="67.13" transform="translate(172.38 -96.66) rotate(90)"/><polygon class="cls-3" points="2.82 113.39 43.47 91.02 84.13 113.39 2.82 113.39"/><path class="cls-3" d="M109.8,182.71" transform="translate(-98.21 -83.88)"/><path class="cls-3" d="M141.68,174.9" transform="translate(-98.21 -83.88)"/><path class="cls-3" d="M141.68,174.9" transform="translate(-98.21 -83.88)"/><path class="cls-3" d="M141.68,174.9" transform="translate(-98.21 -83.88)"/><path class="cls-3" d="M141.68,174.9" transform="translate(-98.21 -83.88)"/><g id="_Mirror_Repeat_" data-name="&lt;Mirror Repeat&gt;"><g class="cls-4"><path class="cls-3" d="M141.68,166.84l-33.56,18.52,33.56-18.52-33.56,18.52V166.84" transform="translate(-98.21 -83.88)"/></g></g><g id="_Mirror_Repeat_2" data-name="&lt;Mirror Repeat&gt;"><g class="cls-5"><path class="cls-3" d="M141.68,166.84l33.57,18.52-33.57-18.52,33.57,18.52V166.84" transform="translate(-98.21 -83.88)"/></g></g><line class="cls-3" x1="77.04" y1="83.84" x2="77.04" y2="102.36"/><path class="cls-6" d="M141.68,174.9" transform="translate(-98.21 -83.88)"/><path class="cls-3" d="M101,197.27l-2.82,2.31,87-.68-2.91-1.63L141.68,174.9Z" transform="translate(-98.21 -83.88)"/></svg>