<svg id="Layer_1" data-name="Layer 1" xmlns="http://www.w3.org/2000/svg" viewBox="0 0 81.3 113.39"><defs><style>.cls-1,.cls-3{fill:#fff;}.cls-2{fill:none;}.cls-3{stroke:#231f20;stroke-miterlimit:10;}.cls-4{fill:#3e3f3c;}</style></defs><path class="cls-1" d="M11.59,98.83" transform="translate(-2.82 0)"/><path class="cls-1" d="M43.47,91" transform="translate(-2.82 0)"/><path class="cls-1" d="M43.47,91" transform="translate(-2.82 0)"/><path class="cls-1" d="M43.47,91" transform="translate(-2.82 0)"/><path class="cls-1" d="M43.47,91" transform="translate(-2.82 0)"/><line class="cls-2" x1="74.22" y1="83.84" x2="74.22" y2="102.36"/><path class="cls-3" d="M43.47,91" transform="translate(-2.82 0)"/><path class="cls-1" d="M9.91,100.83" transform="translate(-2.82 0)"/><path class="cls-1" d="M43.47,83" transform="translate(-2.82 0)"/><path class="cls-1" d="M9.91,100.83" transform="translate(-2.82 0)"/><path class="cls-1" d="M9.91,101.38" transform="translate(-2.82 0)"/><path class="cls-4" d="M2.82,0V113.39L43.47,91l40.65,22.37V0ZM77,83h0v18.42L43.47,83,9.91,101.38V7.09H77Z" transform="translate(-2.82 0)"/></svg>