<svg id="Layer_1" data-name="Layer 1" xmlns="http://www.w3.org/2000/svg" viewBox="0 0 82.97 113.39"><defs><style>.cls-1{fill:white;}</style></defs><rect class="cls-1" x="69.02" width="5.67" height="69.6"/><rect class="cls-1" x="24.7" width="47.91" height="5.72"/><rect class="cls-1" x="24.7" y="63.88" width="47.91" height="5.71"/><rect class="cls-1" x="34.64" y="28.68" width="28.21" height="5.62"/><rect class="cls-1" x="34.64" y="13.18" width="28.21" height="5.65"/><rect class="cls-1" x="32.18" y="72.09" width="42.51" height="5.65"/><rect class="cls-1" x="24.7" y="80.24" width="58.27" height="5.67"/><rect class="cls-1" x="77.3" y="6.99" width="5.67" height="74.02"/><rect class="cls-1" x="20.54" width="5.64" height="85.92"/><path class="cls-1" d="M131.46,154.41" transform="translate(-100.25 -84.81)"/><rect class="cls-1" x="48.48" y="85.92" width="5.67" height="11.15"/><rect class="cls-1" x="4.16" y="27.47" width="16.38" height="5.64"/><rect class="cls-1" x="4.16" y="91.49" width="47.91" height="5.58"/><rect class="cls-1" x="11.64" y="99.55" width="42.51" height="5.69"/><rect class="cls-1" x="4.16" y="107.73" width="58.27" height="5.66"/><rect class="cls-1" x="56.78" y="85.92" width="5.65" height="22.56"/><rect class="cls-1" y="27.47" width="5.65" height="85.92"/><path class="cls-1" d="M104.41,117.18" transform="translate(-100.25 -84.81)"/></svg>