<svg id="Layer_1" data-name="Layer 1" xmlns="http://www.w3.org/2000/svg" viewBox="0 0 203.23 113.39"><defs><style>.cls-1{fill:white;}.cls-2{fill:#fff;}</style></defs><path class="cls-1" d="M256.18,408.84" transform="translate(-204.79 -338.91)"/><path class="cls-2" d="M250.33,377" transform="translate(-204.79 -338.91)"/><rect class="cls-1" x="51.39" y="75.2" width="13.71" height="13.53"/><path class="cls-1" d="M286.94,371.32a19.12,19.12,0,0,0-3.83-6.14,23.06,23.06,0,0,0-7.81-5.66c-4.43-2-8.27-2-12.27-2a28.07,28.07,0,0,0-9.08.95,24.42,24.42,0,0,0-10,5.82,23.07,23.07,0,0,0-4.65,6.48,19.38,19.38,0,0,0-2,7l12.43,1.41c.15-.54.38-1.31.69-2.21.36-1.08.69-1.88.75-2a11.94,11.94,0,0,1,4.62-5.83c3.54-2.27,7.24-1.82,9.24-1.57s4.63.57,6.86,2.68a9.51,9.51,0,0,1,2.7,4.87,8.72,8.72,0,0,1-.16,4.57c-.22.69-.73,1.92-3.82,4.87-2,1.92-2.44,2-5.74,4.88-1.06.92-1.18,1.15-2.34,2.18-.8.72-.83.7-1.52,1.33-.36.32-1,.95-1.85,1.8a12,12,0,0,0-2.41,3,3.86,3.86,0,0,0-.48,1.88v9.26h13.7v-7.65a22.44,22.44,0,0,1,2.39-2.5c4.21-4,5.23-4.6,7.65-6.92,3.26-3.13,5.11-4.93,6.54-8a16.58,16.58,0,0,0,1.59-6.45A15.71,15.71,0,0,0,286.94,371.32Z" transform="translate(-204.79 -338.91)"/><path class="cls-1" d="M270.42,401.49" transform="translate(-204.79 -338.91)"/><path class="cls-1" d="M248.84,385.37" transform="translate(-204.79 -338.91)"/><path class="cls-1" d="M342.49,411.39" transform="translate(-204.79 -338.91)"/><path class="cls-2" d="M336.6,380" transform="translate(-204.79 -338.91)"/><path class="cls-1" d="M356.82,404.16" transform="translate(-204.79 -338.91)"/><path class="cls-1" d="M335.11,388.31" transform="translate(-204.79 -338.91)"/><path class="cls-1" d="M374.34,437.28a50.63,50.63,0,0,1-25.79,7c-27.33,0-49.49-21.37-49.49-47.73s22.16-47.74,49.49-47.74S398,370.17,398,396.54a46.3,46.3,0,0,1-8,26c1,2.57,2,5.13,3,7.7A52.84,52.84,0,0,0,404.89,397c0-30-25.22-54.35-56.34-54.35S292.2,367,292.2,397s25.23,54.35,56.35,54.35a57.44,57.44,0,0,0,35.57-12.2Z" transform="translate(-204.79 -338.91)"/><polygon class="cls-1" points="164.3 32.49 137.44 69.83 125.16 55.64 115.63 63.66 129.95 80.23 129.93 80.26 138.42 90.08 174.65 39.72 164.3 32.49"/><path class="cls-1" d="M214.42,443.45q2.39-8.37,4.78-16.72l-5.78-5.42-8.63,31,32.42-8.66-5.44-5.1Z" transform="translate(-204.79 -338.91)"/><path class="cls-1" d="M262.19,345.2A49.21,49.21,0,0,1,306.12,372a49,49,0,0,1,4.3-5.84,56.09,56.09,0,0,0-48.23-27.2c-30.91,0-56,24.74-56,55.26a54.6,54.6,0,0,0,12.39,34.65c.81-2.84,1.63-5.69,2.44-8.54a47.84,47.84,0,0,1-8-26.54C213,366.93,235,345.2,262.19,345.2Z" transform="translate(-204.79 -338.91)"/><path class="cls-1" d="M304.55,418.38a49.58,49.58,0,0,1-65.62,18.12l-9.27,2.63a56.44,56.44,0,0,0,79.07-14.25A47.61,47.61,0,0,1,304.55,418.38Z" transform="translate(-204.79 -338.91)"/><path class="cls-1" d="M396.57,419.85l-5.3,5.8q3.15,8,6.29,16l-17.84-3.33-5,5.46L408,449.46Z" transform="translate(-204.79 -338.91)"/></svg>