<svg id="Layer_1" data-name="Layer 1" xmlns="http://www.w3.org/2000/svg" viewBox="0 0 50.84 96.8"><defs><style>.cls-1{fill:#3e3f3c;}</style></defs><rect class="cls-1" x="20.53" y="83.03" width="13.03" height="13.77"/><path class="cls-1" d="M130.62,140.83l-11.82-1.44a21.62,21.62,0,0,1,.62-3.55,20.22,20.22,0,0,1,1.33-3.62s.28-.62.58-1.2a24.66,24.66,0,0,1,3.84-5.39,23.28,23.28,0,0,1,9.55-5.93,25.2,25.2,0,0,1,8.64-1c3.8,0,7.45.08,11.67,2.08a22.19,22.19,0,0,1,7.42,5.77,19.3,19.3,0,0,1,3.64,6.24,16.89,16.89,0,0,1,1.06,6.08,17.6,17.6,0,0,1-1.52,6.56c-1.35,3.15-3.11,5-6.21,8.17-2.3,2.36-3.28,3-7.27,7A20.54,20.54,0,0,0,149,164.5c-.08.12-.14.43-.33.82a7.61,7.61,0,0,1-.79,1.25c-1.27,1.57-8.35,3.54-9.54,2.47a3.35,3.35,0,0,1-.65-.83,3.81,3.81,0,0,1-.27-.78c-.31-1.54,0-2.91-.36-4.69a4.73,4.73,0,0,1-.21-1.16,4.17,4.17,0,0,1,.46-1.91,12.16,12.16,0,0,1,2.29-3c.78-.87,1.42-1.5,1.76-1.84.65-.64.68-.62,1.45-1.35,1.1-1,1.21-1.28,2.22-2.21,3.14-2.91,3.55-3,5.46-5,2.94-3,3.42-4.25,3.64-5a9.54,9.54,0,0,0,.15-4.64,10,10,0,0,0-2.58-5,10.22,10.22,0,0,0-6.52-2.72,11.89,11.89,0,0,0-8.79,1.6,12.12,12.12,0,0,0-4.39,5.92c-.06.15-.37,1-.72,2.07C131,139.5,130.77,140.28,130.62,140.83Z" transform="translate(-116.31 -93.33)"/><path class="cls-1" d="M149.87,171h-13v-9.42h13V171Z" transform="translate(-116.31 -93.33)"/><path class="cls-1" d="M121.25,119.46" transform="translate(-116.31 -93.33)"/><path class="cls-1" d="M121.33,131" transform="translate(-116.31 -93.33)"/><path class="cls-1" d="M118.85,139.39a23.91,23.91,0,0,0-.47-13.43,21.08,21.08,0,0,0-2.07-4.33,7.47,7.47,0,0,1,3.9.71,8,8,0,0,1,3.37,3.21,32.65,32.65,0,0,1,.27-9.19,22.63,22.63,0,0,1,2.54-7.8,19.17,19.17,0,0,1,3.77-4.71,24.32,24.32,0,0,0,.24,6.38,23.38,23.38,0,0,0,2.5,7.2,16.52,16.52,0,0,1,1.42-3.56,49.88,49.88,0,0,1,3.46-4.89,40.28,40.28,0,0,0,2.28-3.71,11,11,0,0,0,.47-7.11l-1.29-4.83a26.14,26.14,0,0,1,4.22,2.6,9.66,9.66,0,0,1,1.92,1.78h0s.71.72,1.17,1.29a9.39,9.39,0,0,1,1.09,1.64l1.14,2.09a30.27,30.27,0,0,1,.86,3.44c.22,1.12.37,2.18.46,3.14a14.1,14.1,0,0,0,2.2,7.71,11.06,11.06,0,0,1,1.7-5.75,10.54,10.54,0,0,1,7.67-4.56,10,10,0,0,0-1.46,2.45,12.49,12.49,0,0,0-.84,4.35c0,3.76,2.17,7,2.77,8,1.83,2.88,4,7.59,5,15.46a27.34,27.34,0,0,0-24.52-13.84A27.64,27.64,0,0,0,118.85,139.39Z" transform="translate(-116.31 -93.33)"/></svg>