<svg id="Layer_1" data-name="Layer 1" xmlns="http://www.w3.org/2000/svg" viewBox="0 0 119.51 113.39"><defs><style>.cls-1{fill:#3e3f3c;}.cls-2,.cls-3{fill:#fff;}.cls-3{stroke:#231f20;stroke-miterlimit:10;}</style></defs><circle class="cls-1" cx="56.69" cy="34.33" r="34.33"/><circle class="cls-2" cx="56.65" cy="33.66" r="27.22"/><path class="cls-3" d="M163.94,116.54" transform="translate(-81.98 -82.89)"/><path class="cls-2" d="M162.75,117.21" transform="translate(-81.98 -82.89)"/><path class="cls-2" d="M161.06,116.14" transform="translate(-81.98 -82.89)"/><path class="cls-2" d="M161.64,117.21" transform="translate(-81.98 -82.89)"/><path class="cls-2" d="M184.4,107.14" transform="translate(-81.98 -82.89)"/><path class="cls-1" d="M88.87,87" transform="translate(-81.98 -82.89)"/><path class="cls-1" d="M163.9,147.44a52.29,52.29,0,0,1,15.6,10.66c14.3,14.24,15.71,32.6,15.93,38.17H82a54.5,54.5,0,0,1,12.85-35.08,56.81,56.81,0,0,1,17.74-13.75,40.22,40.22,0,0,0,23.92,9.24A40.76,40.76,0,0,0,163.9,147.44Z" transform="translate(-81.98 -82.89)"/><path class="cls-2" d="M89.63,189.17a46.59,46.59,0,0,1,10.58-23.38A48.63,48.63,0,0,1,112,155.85a47.06,47.06,0,0,0,24.2,7.91c.68,0,1.35.05,2,.05a47.93,47.93,0,0,0,26.41-8.07,47.05,47.05,0,0,1,9.94,7.41A46.29,46.29,0,0,1,187.6,189Z" transform="translate(-81.98 -82.89)"/><path class="cls-2" d="M166.07,117.21" transform="translate(-81.98 -82.89)"/><line class="cls-2" y1="113.39" x2="119.51" y2="113.39"/></svg>