<svg id="Layer_1" data-name="Layer 1" xmlns="http://www.w3.org/2000/svg" viewBox="0 0 119.51 113.39"><defs><style>.cls-1{fill:white;}.cls-2,.cls-3{fill:#fff;}.cls-2{stroke:#231f20;stroke-miterlimit:10;}.cls-4{fill:none;}</style></defs><path class="cls-1" d="M56.69,0A34.33,34.33,0,1,0,91,34.33,34.33,34.33,0,0,0,56.69,0Zm0,60.88A27.22,27.22,0,1,1,83.87,33.66,27.22,27.22,0,0,1,56.65,60.88Z" transform="translate(0 0)"/><path class="cls-2" d="M82,33.65" transform="translate(0 0)"/><path class="cls-3" d="M80.77,34.32" transform="translate(0 0)"/><path class="cls-3" d="M79.08,33.25" transform="translate(0 0)"/><path class="cls-3" d="M79.66,34.32" transform="translate(0 0)"/><path class="cls-3" d="M102.42,24.25" transform="translate(0 0)"/><path class="cls-1" d="M6.89,4.11" transform="translate(0 0)"/><path class="cls-1" d="M97.52,75.21a52.43,52.43,0,0,0-15.6-10.66,40.77,40.77,0,0,1-27.39,9.24,40.21,40.21,0,0,1-23.92-9.24A56.79,56.79,0,0,0,12.87,78.3,54.53,54.53,0,0,0,0,113.38H113.45C113.23,107.81,111.82,89.45,97.52,75.21ZM18.23,82.9A48.86,48.86,0,0,1,30,73a47,47,0,0,0,24.2,7.91c.68,0,1.35,0,2,0a48,48,0,0,0,26.41-8.07,46.79,46.79,0,0,1,9.94,7.41,46.29,46.29,0,0,1,13.05,25.85l-98,.17A46.57,46.57,0,0,1,18.23,82.9Z" transform="translate(0 0)"/><path class="cls-3" d="M84.09,34.32" transform="translate(0 0)"/><line class="cls-4" y1="113.39" x2="119.51" y2="113.39"/></svg>