<svg id="Layer_1" data-name="Layer 1" xmlns="http://www.w3.org/2000/svg" viewBox="0 0 115.81 108.7"><defs><style>.cls-1{fill:white;}.cls-2{fill:#fff;}</style></defs><path class="cls-1" d="M50.29,68.78" transform="translate(0 0)"/><path class="cls-2" d="M44.4,37.43" transform="translate(0 0)"/><path class="cls-1" d="M64.62,61.55" transform="translate(0 0)"/><path class="cls-1" d="M42.9,45.7" transform="translate(0 0)"/><path class="cls-1" d="M82.12,94.67a50.55,50.55,0,0,1-25.77,7C29,101.65,6.86,80.28,6.86,53.92S29,6.19,56.35,6.19s49.49,21.37,49.49,47.73a46.33,46.33,0,0,1-8,26l3,7.71A52.9,52.9,0,0,0,112.7,54.35C112.7,24.33,87.47,0,56.35,0S0,24.33,0,54.35,25.23,108.7,56.35,108.7A57.44,57.44,0,0,0,91.92,96.5Z" transform="translate(0 0)"/><rect class="cls-1" x="50.02" y="74.95" width="13.71" height="13.53"/><path class="cls-1" d="M43.48,40,31.05,38.62a19.3,19.3,0,0,1,2.05-7,23.51,23.51,0,0,1,4.65-6.49,24.46,24.46,0,0,1,10-5.82,28.38,28.38,0,0,1,9.08-.94c4,0,7.84.07,12.27,2A23.08,23.08,0,0,1,76.91,26a18.91,18.91,0,0,1,3.83,6.13,15.62,15.62,0,0,1,1.11,6,16.22,16.22,0,0,1-1.59,6.45c-1.43,3.09-3.27,4.9-6.53,8-2.42,2.31-3.45,2.94-7.65,6.92a20.42,20.42,0,0,0-3.32,3.75c-.08.12-.15.43-.35.81a7.1,7.1,0,0,1-.83,1.22c-1.34,1.55-8.78,3.48-10,2.43a3.12,3.12,0,0,1-.68-.81,3.39,3.39,0,0,1-.29-.77c-.33-1.51,0-2.85-.38-4.6A4.5,4.5,0,0,1,50,60.42a3.94,3.94,0,0,1,.48-1.87,12,12,0,0,1,2.41-3c.82-.85,1.49-1.47,1.85-1.8.69-.63.72-.61,1.53-1.33,1.15-1,1.27-1.25,2.33-2.17,3.3-2.86,3.74-3,5.74-4.88,3.1-3,3.6-4.18,3.83-4.88a8.82,8.82,0,0,0,.16-4.56,9.56,9.56,0,0,0-2.71-4.88c-2.23-2.1-4.86-2.43-6.86-2.67s-5.7-.71-9.24,1.57a11.94,11.94,0,0,0-4.62,5.82c-.06.15-.39,1-.75,2S43.64,39.48,43.48,40Z" transform="translate(0 0)"/><path class="cls-1" d="M63.72,69.69H50V60.42h13.7Z" transform="translate(0 0)"/><path class="cls-1" d="M104.37,77.23,99.07,83q3.14,8,6.29,16L87.52,95.68l-5,5.46,33.28,5.71Z" transform="translate(0 0)"/></svg>