<svg id="Layer_1" data-name="Layer 1" xmlns="http://www.w3.org/2000/svg" viewBox="0 0 113.39 113.39"><defs><style>.cls-1{fill:#3e3f3c;}.cls-2{fill:#fff;}</style></defs><ellipse class="cls-1" cx="57.41" cy="55.26" rx="55.98" ry="55.26"/><ellipse class="cls-2" cx="57.41" cy="54.83" rx="49.17" ry="48.54"/><rect class="cls-1" x="51.39" y="75.2" width="13.71" height="13.53"/><path class="cls-1" d="M131.45,125.32,119,123.9a19.2,19.2,0,0,1,.64-3.49,19.42,19.42,0,0,1,1.4-3.56,23.28,23.28,0,0,1,4.65-6.48,24.42,24.42,0,0,1,10-5.82,28.35,28.35,0,0,1,9.08-1c4,0,7.84.08,12.27,2.05a23.08,23.08,0,0,1,7.81,5.66,18.78,18.78,0,0,1,3.83,6.14,15.55,15.55,0,0,1,1.11,6,16.38,16.38,0,0,1-1.59,6.45c-1.42,3.09-3.27,4.9-6.53,8-2.42,2.32-3.45,2.94-7.65,6.92a20.74,20.74,0,0,0-3.32,3.76c-.08.12-.15.43-.35.81a7.1,7.1,0,0,1-.83,1.22c-1.34,1.54-8.78,3.48-10,2.43a3.25,3.25,0,0,1-.68-.81,3.54,3.54,0,0,1-.29-.77c-.32-1.52,0-2.86-.38-4.61a4.59,4.59,0,0,1-.22-1.14,4,4,0,0,1,.48-1.88,12.16,12.16,0,0,1,2.41-3c.82-.85,1.49-1.47,1.85-1.8.69-.63.72-.61,1.53-1.33,1.16-1,1.27-1.26,2.34-2.18,3.3-2.86,3.73-3,5.73-4.88,3.1-3,3.6-4.18,3.83-4.87a8.79,8.79,0,0,0,.16-4.56,9.53,9.53,0,0,0-2.71-4.88c-2.22-2.11-4.86-2.43-6.85-2.68s-5.71-.7-9.25,1.58a12,12,0,0,0-4.62,5.82c-.06.15-.39,1-.75,2C131.82,124,131.6,124.77,131.45,125.32Z" transform="translate(-86.59 -85.04)"/><path class="cls-1" d="M138,155" transform="translate(-86.59 -85.04)"/><path class="cls-2" d="M132.13,123.1" transform="translate(-86.59 -85.04)"/><path class="cls-1" d="M151.69,155H138v-9.26h13.71V155Z" transform="translate(-86.59 -85.04)"/><path class="cls-1" d="M152.22,147.62" transform="translate(-86.59 -85.04)"/><path class="cls-1" d="M130.64,131.51" transform="translate(-86.59 -85.04)"/><polyline class="cls-1" points="8.63 82.4 0 113.39 32.42 104.73"/><path class="cls-2" d="M104.05,162.22l-7.83,27.36,27.72-7.86" transform="translate(-86.59 -85.04)"/></svg>