<svg id="Layer_1" data-name="Layer 1" xmlns="http://www.w3.org/2000/svg" viewBox="0 0 115.81 108.7"><defs><style>.cls-1{fill:#3e3f3c;}.cls-2{fill:#fff;}</style></defs><ellipse class="cls-1" cx="56.35" cy="54.35" rx="56.35" ry="54.35"/><ellipse class="cls-2" cx="56.35" cy="53.92" rx="49.49" ry="47.73"/><path class="cls-1" d="M134.12,156.16" transform="translate(-83.83 -87.38)"/><path class="cls-2" d="M128.23,124.81" transform="translate(-83.83 -87.38)"/><path class="cls-1" d="M148.45,148.93" transform="translate(-83.83 -87.38)"/><path class="cls-1" d="M126.73,133.08" transform="translate(-83.83 -87.38)"/><polyline class="cls-1" points="104.37 77.23 115.81 106.85 82.53 101.14"/><path class="cls-2" d="M178.89,160.25q5.15,13.08,10.3,26.14l-28.5-5.32" transform="translate(-83.83 -87.38)"/><rect class="cls-1" x="50.02" y="74.95" width="13.71" height="13.53"/><path class="cls-1" d="M127.31,127.41,114.88,126a19.41,19.41,0,0,1,2.05-7,23.3,23.3,0,0,1,4.65-6.49,24.42,24.42,0,0,1,10-5.82,28.34,28.34,0,0,1,9.08-.94c4,0,7.84.07,12.27,2a23.07,23.07,0,0,1,7.81,5.67,18.93,18.93,0,0,1,3.83,6.13,15.55,15.55,0,0,1,1.11,6,16.35,16.35,0,0,1-1.59,6.45c-1.43,3.09-3.27,4.9-6.53,8-2.42,2.31-3.45,2.94-7.65,6.92a20.49,20.49,0,0,0-3.32,3.75c-.08.12-.15.43-.35.81a7.1,7.1,0,0,1-.83,1.22c-1.34,1.55-8.78,3.48-10,2.43a3.07,3.07,0,0,1-.68-.81,3.54,3.54,0,0,1-.29-.77c-.33-1.51,0-2.85-.38-4.6a4.67,4.67,0,0,1-.22-1.15,3.91,3.91,0,0,1,.48-1.87,12,12,0,0,1,2.41-3c.82-.85,1.49-1.47,1.85-1.8.69-.63.72-.61,1.53-1.33,1.15-1,1.27-1.25,2.33-2.17,3.3-2.86,3.74-3,5.74-4.88,3.1-3,3.6-4.18,3.83-4.88a8.79,8.79,0,0,0,.16-4.56,9.61,9.61,0,0,0-2.71-4.88c-2.23-2.1-4.86-2.43-6.86-2.67s-5.7-.71-9.24,1.57a11.92,11.92,0,0,0-4.62,5.82c-.06.15-.39,1-.75,2C127.69,126.1,127.47,126.86,127.31,127.41Z" transform="translate(-83.83 -87.38)"/><path class="cls-1" d="M147.55,157.07h-13.7V147.8h13.7v9.27Z" transform="translate(-83.83 -87.38)"/></svg>