<svg id="Layer_1" data-name="Layer 1" xmlns="http://www.w3.org/2000/svg" viewBox="0 0 113.39 113.39"><defs><style>.cls-1{fill:white;}.cls-2{fill:#fff;}</style></defs><rect class="cls-1" x="51.39" y="75.2" width="13.71" height="13.53"/><path class="cls-1" d="M44.86,40.28,32.41,38.86a19.1,19.1,0,0,1,2-7,23.47,23.47,0,0,1,4.65-6.48,24.46,24.46,0,0,1,10-5.82,28.39,28.39,0,0,1,9.08-1c4,0,7.84.08,12.27,2a23.15,23.15,0,0,1,7.81,5.66,18.85,18.85,0,0,1,3.83,6.14,15.62,15.62,0,0,1,1.11,6,16.22,16.22,0,0,1-1.59,6.45c-1.42,3.09-3.27,4.9-6.53,8-2.42,2.32-3.45,2.94-7.65,6.92a20.86,20.86,0,0,0-3.32,3.76c-.08.12-.15.43-.35.81a7.1,7.1,0,0,1-.83,1.22c-1.34,1.54-8.78,3.48-10,2.43a3.12,3.12,0,0,1-.68-.81,3.39,3.39,0,0,1-.29-.77c-.32-1.52,0-2.86-.38-4.61a4.43,4.43,0,0,1-.22-1.14,4,4,0,0,1,.48-1.88,12.23,12.23,0,0,1,2.41-3c.82-.85,1.49-1.47,1.85-1.8.69-.63.72-.61,1.53-1.33,1.16-1,1.27-1.26,2.34-2.18,3.3-2.86,3.73-3,5.73-4.88,3.1-3,3.6-4.18,3.83-4.87a8.82,8.82,0,0,0,.16-4.56A9.56,9.56,0,0,0,67,31.24c-2.22-2.11-4.86-2.43-6.85-2.68s-5.71-.7-9.25,1.58A12,12,0,0,0,46.26,36c-.06.15-.39,1-.75,2S45,39.73,44.86,40.28Z" transform="translate(0 0)"/><path class="cls-1" d="M51.41,70" transform="translate(0 0)"/><path class="cls-2" d="M45.54,38.06" transform="translate(0 0)"/><path class="cls-1" d="M65.1,70H51.41V60.7H65.12V70Z" transform="translate(0 0)"/><path class="cls-1" d="M65.63,62.58" transform="translate(0 0)"/><path class="cls-1" d="M44.05,46.47" transform="translate(0 0)"/><path class="cls-1" d="M57.41,0c-30.92,0-56,24.74-56,55.26A54.54,54.54,0,0,0,13.82,89.91l2.44-8.53a47.8,47.8,0,0,1-8-26.55c0-26.81,22-48.54,49.17-48.54S106.58,28,106.58,54.83s-22,48.54-49.17,48.54a49.4,49.4,0,0,1-23.28-5.78l-9.25,2.63a56.24,56.24,0,0,0,32.53,10.3c30.92,0,56-24.74,56-55.26S88.33,0,57.41,0Z" transform="translate(0 0)"/><polygon class="cls-1" points="9.63 104.54 14.41 87.83 8.63 82.4 0 113.39 32.42 104.73 26.98 99.62 9.63 104.54"/></svg>