<svg id="Layer_1" data-name="Layer 1" xmlns="http://www.w3.org/2000/svg" viewBox="0 0 113.39 113.84"><defs><style>.cls-1{fill:#3e3f3c;}.cls-2{fill:#fff;}</style></defs><path class="cls-1" d="M84.51,110v59.64l56,30.51,57.37-30.78V110L141.44,86.31Z" transform="translate(-84.51 -86.31)"/><path class="cls-2" d="M93.17,111.53l48.19-19.65,46.09,19.93-47,19.64Z" transform="translate(-84.51 -86.31)"/><polygon class="cls-2" points="59.91 50.91 107.72 30.33 107.72 78.7 59.91 104.16 59.91 50.91"/><polygon class="cls-2" points="5.67 79.44 5.67 31.57 52.29 51.06 52.29 104.09 5.67 79.44"/><path class="cls-1" d="M98.23,140.37l6.13,2.33a3,3,0,0,1,.52-2.75,3.57,3.57,0,0,1,3.3-1.13,11.37,11.37,0,0,1,4.41,1.43,10.58,10.58,0,0,1,2.38,1.86,7,7,0,0,1,1.71,4.12,4.09,4.09,0,0,1-.43,2.49,5,5,0,0,1-3.23,2.17,13.84,13.84,0,0,0-2.08,1,8.54,8.54,0,0,0-2.15,1.59,7.18,7.18,0,0,0-1.14,1.63,5,5,0,0,0-.66,2.69v3.77l6.07,2.93.06-4.49a3.9,3.9,0,0,1,.66-1.73,4.48,4.48,0,0,1,2-1.56c.36-.19.9-.47,1.58-.78,2.44-1.09,3.46-1,4.44-1.83a4.22,4.22,0,0,0,1.42-2.83,14.43,14.43,0,0,0-.13-5.21,13.94,13.94,0,0,0-1.62-4.51,15.17,15.17,0,0,0-3.21-3.83,19.59,19.59,0,0,0-4.1-2.86,18.71,18.71,0,0,0-5.18-1.76,13.57,13.57,0,0,0-2.16-.26,12.7,12.7,0,0,0-5.11.91A6.69,6.69,0,0,0,99,136.06,5.82,5.82,0,0,0,98.23,140.37Z" transform="translate(-84.51 -86.31)"/><path class="cls-1" d="M106.9,163.47l5.91,2.83c0,1.81-.09,3.62-.14,5.42l-5.87-3Z" transform="translate(-84.51 -86.31)"/><path class="cls-2" d="M88.45,167.3" transform="translate(-84.51 -86.31)"/><path class="cls-1" d="M158.56,150.49l6-2.38a9,9,0,0,1,1.06-3.81,10.07,10.07,0,0,1,2.53-3,8,8,0,0,1,3.13-1.71,8.57,8.57,0,0,1,3.32-.25,3.23,3.23,0,0,1,1.89,1.21,2.64,2.64,0,0,1,.36,2.22,14.25,14.25,0,0,1-.82,2.55,14.44,14.44,0,0,1-2.08,3.38c-.36.44-1,1.16-1.72,2-1.31,1.53-1.63,1.84-2.23,2.66a16.32,16.32,0,0,0-1.57,2.49,10.92,10.92,0,0,0-1,2.59,9.32,9.32,0,0,0-.23,2.92v3.68l6-2.71a13.73,13.73,0,0,1,0-3.13,9.32,9.32,0,0,1,.72-3,11.47,11.47,0,0,1,2-2.78c.78-.91,1-1.05,2.1-2.29a30.65,30.65,0,0,0,2.34-2.74,15,15,0,0,0,2-4.17,11.19,11.19,0,0,0,.77-4.39,5.87,5.87,0,0,0-1.12-3.66,6.33,6.33,0,0,0-2.83-1.93,8.69,8.69,0,0,0-3.13-.5,12.64,12.64,0,0,0-1.92.2,21.56,21.56,0,0,0-2.31.47,19.77,19.77,0,0,0-5,2.09,17.06,17.06,0,0,0-4.23,3.57,17.42,17.42,0,0,0-2.9,4.87A16.58,16.58,0,0,0,158.56,150.49Z" transform="translate(-84.51 -86.31)"/><path class="cls-1" d="M173.59,165.07l-6,2.74c0,1.81,0,3.62,0,5.43l5.93-3Z" transform="translate(-84.51 -86.31)"/><path class="cls-1" d="M126.75,113.31l4.62-3.19a3.25,3.25,0,0,1-2-1.84,2.65,2.65,0,0,1,.18-2,5.41,5.41,0,0,1,1.87-2,8.8,8.8,0,0,1,3.78-1.84,6.74,6.74,0,0,1,4.72.53,4.55,4.55,0,0,1,2,2.32,3.42,3.42,0,0,1,.08,1.62c0,.2-.05.5-.09.84s-.09,1.06-.1,1.72a7.39,7.39,0,0,0,.29,2.71,6.31,6.31,0,0,0,.95,1.78,6.8,6.8,0,0,0,1,1,10.45,10.45,0,0,0,2.73,1.71l5.8-2.74-3.43-2.08a2.94,2.94,0,0,1-1.22-1.33,3,3,0,0,1-.14-1.71c.31-2.33.57-2.86.6-3.71a5.51,5.51,0,0,0-1-3.2,8.19,8.19,0,0,0-2.29-2.22,9.19,9.19,0,0,0-2.84-1.24,17.33,17.33,0,0,0-8.57.47,18.41,18.41,0,0,0-4.12,1.58,16.85,16.85,0,0,0-3.3,2.24,9.26,9.26,0,0,0-2.36,2.82,8.32,8.32,0,0,0-.93,3.11,5,5,0,0,0,1,2.73A6,6,0,0,0,126.75,113.31Z" transform="translate(-84.51 -86.31)"/><path class="cls-1" d="M148.82,118l5.63-2.74,4.85,2.51-5.84,2.75Z" transform="translate(-84.51 -86.31)"/><path class="cls-1" d="M140.71,118.41" transform="translate(-84.51 -86.31)"/><path class="cls-2" d="M134.86,190.4" transform="translate(-84.51 -86.31)"/></svg>