<svg xmlns="http://www.w3.org/2000/svg" width="41.082" height="31.237" viewBox="0 0 41.082 31.237">
  <path id="Tracciato_17" data-name="Tracciato 17" d="M36.386,2.5h.988a1.335,1.335,0,0,0,.209.07A4.4,4.4,0,0,1,40.473,4.3a4.512,4.512,0,0,1-.56,6.086Q30.1,20.191,20.282,30a4.513,4.513,0,0,1-6.736,0q-4.782-4.774-9.559-9.553a8.382,8.382,0,0,1-.579-.652A5,5,0,0,1,2.5,17.609V16.546c.025-.083.057-.164.073-.249A4.4,4.4,0,0,1,5.01,13.054a4.484,4.484,0,0,1,5.3.943q2.854,2.839,5.7,5.689a1.156,1.156,0,0,0,1.8.017c.091-.088.179-.179.269-.268q7.709-7.7,15.416-15.41a4.895,4.895,0,0,1,2.13-1.332C35.875,2.622,36.131,2.564,36.386,2.5Z" transform="translate(-1.5 -1.5)" fill="none" stroke="#00de09" stroke-miterlimit="10" stroke-width="2"/>
</svg>
