<svg id="Layer_1" data-name="Layer 1"
  xmlns="http://www.w3.org/2000/svg" viewBox="0 0 113.39 112.44">
  <defs>
    <style>.cls-1{fill:white;}</style>
  </defs>
  <path class="cls-1" d="M75.54,26.56C70,6.92,48.83-4.29,28.35,1.53S-4.22,28,1.36,47.63s26.71,30.85,47.19,25S81.12,46.2,75.54,26.56Zm-37.67,38-.29-.08a28,28,0,0,1-19.73-7.9,26,26,0,0,1-7.92-19c.18-15.25,13.19-27.78,29-27.95h.33A28,28,0,0,1,59,17.6a26,26,0,0,1,7.88,19C66.69,51.84,53.68,64.38,37.87,64.6Z" transform="translate(0 0.01)"/>
  <path class="cls-1" d="M103.71,110.24" transform="translate(0 0.01)"/>
  <polygon class="cls-1" points="113.39 98.91 99.42 112.44 54 68.45 67.97 54.92 113.39 98.91"/>
</svg>
