<svg id="Layer_1" data-name="Layer 1" xmlns="http://www.w3.org/2000/svg" viewBox="0 0 113.39 112.43"><defs><style>.cls-1{fill:#3e3f3c;}.cls-2{fill:#fff;}</style></defs><ellipse class="cls-1" cx="133.51" cy="128.44" rx="38.56" ry="36.97" transform="translate(-125.08 -49.97) rotate(-15.86)"/><path class="cls-2" d="M132.65,155.87a28,28,0,0,1-19.73-7.9A26,26,0,0,1,105,129c.18-15.25,13.19-27.78,29-27.95h.33a28,28,0,0,1,19.73,7.9,26,26,0,0,1,7.88,19c-.18,15.24-13.19,27.78-29,28Z" transform="translate(-95.07 -91.35)"/><path class="cls-1" d="M198.78,201.59" transform="translate(-95.07 -91.35)"/><polygon class="cls-1" points="113.39 98.9 99.42 112.43 54 68.44 67.97 54.91 113.39 98.9"/></svg>