<svg id="Layer_1" data-name="Layer 1" xmlns="http://www.w3.org/2000/svg" viewBox="0 0 81.3 117.36"><defs><style>.cls-1{fill:#3e3f3c;}.cls-2{fill:#fff;}</style></defs><rect class="cls-1" y="3.74" width="81.3" height="113.61"/><rect class="cls-2" x="87.58" y="110.82" width="101.89" height="69.39" transform="translate(186.17 -77.98) rotate(90)"/><rect class="cls-1" x="11.43" y="33.69" width="2.97" height="3.11"/><rect class="cls-1" x="18.4" y="33.69" width="51.08" height="3.11"/><rect class="cls-1" x="25.39" width="31.75" height="13.66"/><rect class="cls-2" x="135.03" y="78.51" width="8.21" height="26.56" transform="translate(133.06 -132.31) rotate(90)"/><rect class="cls-1" x="11.43" y="42.25" width="2.97" height="3.11"/><rect class="cls-1" x="18.4" y="42.25" width="51.08" height="3.11"/><rect class="cls-1" x="11.43" y="50.63" width="2.97" height="3.11"/><rect class="cls-1" x="18.4" y="50.63" width="51.08" height="3.11"/><rect class="cls-1" x="11.43" y="59.2" width="2.97" height="3.11"/><rect class="cls-1" x="18.4" y="59.2" width="51.08" height="3.11"/><rect class="cls-1" x="11.43" y="67.76" width="2.97" height="3.11"/><rect class="cls-1" x="18.4" y="67.76" width="51.08" height="3.11"/><rect class="cls-1" x="11.43" y="76.33" width="2.97" height="3.11"/><rect class="cls-1" x="18.4" y="76.33" width="51.08" height="3.11"/></svg>