<svg id="Layer_1" data-name="Layer 1" xmlns="http://www.w3.org/2000/svg" viewBox="0 0 81.3 117.35"><defs><style>.cls-1{fill:#3e3f3c;}</style></defs><rect class="cls-1" x="11.43" y="33.69" width="2.97" height="3.11"/><rect class="cls-1" x="18.4" y="33.69" width="51.08" height="3.11"/><path class="cls-1" d="M25.39,0V13.66H57.14V0ZM54.55,10.93H28V2.72H54.55Z" transform="translate(0 0)"/><rect class="cls-1" x="11.43" y="42.25" width="2.97" height="3.11"/><rect class="cls-1" x="18.4" y="42.25" width="51.08" height="3.11"/><rect class="cls-1" x="11.43" y="50.63" width="2.97" height="3.11"/><rect class="cls-1" x="18.4" y="50.63" width="51.08" height="3.11"/><rect class="cls-1" x="11.43" y="59.2" width="2.97" height="3.11"/><rect class="cls-1" x="18.4" y="59.2" width="51.08" height="3.11"/><rect class="cls-1" x="11.43" y="67.76" width="2.97" height="3.11"/><rect class="cls-1" x="18.4" y="67.76" width="51.08" height="3.11"/><rect class="cls-1" x="11.43" y="76.33" width="2.97" height="3.11"/><rect class="cls-1" x="18.4" y="76.33" width="51.08" height="3.11"/><polygon class="cls-1" points="54.55 3.74 54.55 9.6 75.35 9.6 75.35 111.49 5.96 111.49 5.96 9.6 27.99 9.6 27.99 3.74 0 3.74 0 117.35 81.3 117.35 81.3 3.74 54.55 3.74"/></svg>