<svg id="Layer_1" data-name="Layer 1" xmlns="http://www.w3.org/2000/svg" viewBox="0 0 112.57 113.39"><defs><style>.cls-1{fill:white;}.cls-2{fill:#fff;}.cls-3{fill:#3a3a3c;}</style></defs><path class="cls-1" d="M132.9,84.88" transform="translate(-85.29 -84.88)"/><path class="cls-1" d="M148.77,134.4" transform="translate(-85.29 -84.88)"/><path class="cls-2" d="M143,122.37" transform="translate(-85.29 -84.88)"/><path class="cls-1" d="M162.74,131.63" transform="translate(-85.29 -84.88)"/><path class="cls-1" d="M141.58,125.54" transform="translate(-85.29 -84.88)"/><path class="cls-1" d="M141.54,182" transform="translate(-85.29 -84.88)"/><polygon class="cls-3" points="0 90.26 13.48 90.26 13.48 102.24 99 102.24 99 90.26 112.57 90.26 112.57 113.39 0 113.39 0 90.26"/><path class="cls-3" d="M148.17,181.92l-13.29.09V109.6L116.17,129l-15.72-.22Q121,106.82,141.63,84.88l41.3,44-16.49.1-18.05-19.15Z" transform="translate(-85.29 -84.88)"/><path class="cls-3" d="M116.17,129H100.23l.22-.22" transform="translate(-85.29 -84.88)"/></svg>