<svg xmlns="http://www.w3.org/2000/svg" width="35.961" height="35.6" viewBox="0 0 35.961 35.6">
  <path id="Tracciato_18" data-name="Tracciato 18" d="M.5,31.49v-.929A4.789,4.789,0,0,1,2.076,28.1q5.282-5.248,10.536-10.522a2.185,2.185,0,0,1,.344-.232c-.161-.168-.241-.256-.325-.34Q7.121,11.5,1.611,5.987A3.044,3.044,0,0,1,.739,3.07,3.041,3.041,0,0,1,2.981.645a3.064,3.064,0,0,1,3.194.838q5.47,5.435,10.933,10.876a2.975,2.975,0,0,1,.292.412c.171-.162.252-.235.329-.312q3.81-3.81,7.621-7.621c1.173-1.172,2.314-2.379,3.537-3.5a3.153,3.153,0,0,1,4.421.268,3.189,3.189,0,0,1-.092,4.432q-5.452,5.453-10.906,10.9a2.34,2.34,0,0,1-.4.247c.208.171.308.241.394.326q5.293,5.26,10.589,10.515a4.723,4.723,0,0,1,1.569,2.462v.863l-.084.316a2.947,2.947,0,0,1-2.335,2.316A3.546,3.546,0,0,1,28.607,33q-5.425-5.452-10.87-10.883a2.043,2.043,0,0,1-.222-.33l-.149.007a2.226,2.226,0,0,1-.228.328c-3.6,3.6-7.212,7.2-10.8,10.817A3.659,3.659,0,0,1,3.392,34.07a2.946,2.946,0,0,1-2.806-2.3C.563,31.673.529,31.582.5,31.49Z" transform="translate(0.5 0.51)" fill="none" stroke="#d80000" stroke-linecap="round" stroke-linejoin="round" stroke-miterlimit="10" stroke-width="2"/>
</svg>
